# xmcd CD database file
#
# Track frame offsets:
#	150
#	8292
#	25627
#	42105
#	67260
#	82720
#	105122
#	123167
#	140562
#	154255
#	176090
#	194980
#	212960
#	229537
#	243780
#	264950
#	283865
#	301557
#	319540
#	336285
#
# Disc length: 4674 seconds
#
# Revision: 7
# Processed by: cddbd v1.5.2PL0 Copyright (c) Steve Scherf et al.
# Submitted via: CDex 1.70beta2
#
DISCID=02124014
DTITLE=Ministry of Sound - Late Night Sessions - CD2
DYEAR=2003
DGENRE=Blues
TTITLE0=Alicia Keys - Piano and I
TTITLE1=DJ Shadow - What Does Your Soul Look Like-Part 1
TTITLE2=The Free Association - (I Wish I Had A) Wooden Heart
TTITLE3=Primal Scream - Loaded
TTITLE4=Bonobo - The Plug (Quantic Mix)
TTITLE5=Faithless - Reverance
TTITLE6=Dusted - Under The Sun
TTITLE7=Earl Zinger - Song 2wo
TTITLE8=Aim - Fall Break
TTITLE9=Layo and Bushwackal - Sleepy Language
TTITLE10=Leftfield feat. Nicole Willis - Swords
TTITLE11=Cartesian - La Nuit
TTITLE12=Groove Armada - Edge Hill
TTITLE13=Art Of Noise - Moments In Love
TTITLE14=Frankie Knuckles - Your Love
TTITLE15=Underworld - Luetin
TTITLE16=Mr Fingers - Can You Feel It
TTITLE17=Mirwais feat. Craig Wedren - Miss You
TTITLE18=Hi-Gate - Only The Silence
TTITLE19=Tim 'Love' Lee - Shuffle Shove
EXTD=YEAR: 2003
EXTT0=
EXTT1=
EXTT2=
EXTT3=
EXTT4=
EXTT5=
EXTT6=
EXTT7=
EXTT8=
EXTT9=
EXTT10=
EXTT11=
EXTT12=
EXTT13=
EXTT14=
EXTT15=
EXTT16=
EXTT17=
EXTT18=
EXTT19=
PLAYORDER=
